<?xml version="1.0" encoding="utf-8"?>
<!-- Generator: Adobe Illustrator 23.0.5, SVG Export Plug-In . SVG Version: 6.00 Build 0)  -->
<svg version="1.1" id="Layer_1" xmlns="http://www.w3.org/2000/svg" xmlns:xlink="http://www.w3.org/1999/xlink" x="0px" y="0px"
	 viewBox="0 0 99.5 46" style="enable-background:new 0 0 99.5 46;" xml:space="preserve">
<style type="text/css">
	.st0{fill:#9FA5BF;}
	.st1{fill:url(#SVGID_1_);}
	.st2{fill:url(#SVGID_2_);}
</style>
<g>
	<path class="st0" d="M4.5,29.5c-0.7-0.5-1.3-1.2-1.8-1.9C2.3,26.8,2,25.7,2,24.3c0-1.4,0.2-2.4,0.7-3.2c0.5-0.8,1-1.5,1.8-2
		L20.3,7.5v8.9L9.1,24.3l11.2,7.8V41L4.5,29.5z"/>
	<linearGradient id="SVGID_1_" gradientUnits="userSpaceOnUse" x1="21.3611" y1="39.886" x2="51.1141" y2="10.133">
		<stop  offset="0" style="stop-color:#CC0000"/>
		<stop  offset="0.1103" style="stop-color:#CC1818"/>
		<stop  offset="0.7286" style="stop-color:#CC9898"/>
		<stop  offset="1" style="stop-color:#CCCCCC"/>
	</linearGradient>
	<path class="st1" d="M42.6,42.1V16.6c0-1.2-0.1-2-0.3-2.4c-0.2-0.4-0.7-0.7-1.5-0.7h-1.4v28.5h-6.3V13.5h-1.2
		c-0.8,0-1.3,0.2-1.5,0.6c-0.3,0.4-0.4,1.2-0.4,2.5v25.5h-6.3V13.5c0-3.1,0.6-5.4,1.7-7.1C26.3,4.8,27.9,4,29.9,4h12.7
		c2,0,3.6,0.8,4.7,2.5c1.1,1.6,1.7,4,1.7,7.1v28.5H42.6z"/>
	<linearGradient id="SVGID_2_" gradientUnits="userSpaceOnUse" x1="49.9854" y1="41.4141" x2="77.2871" y2="14.1123">
		<stop  offset="0" style="stop-color:#CC0000"/>
		<stop  offset="0.1103" style="stop-color:#CC1818"/>
		<stop  offset="0.7286" style="stop-color:#CC9898"/>
		<stop  offset="1" style="stop-color:#CCCCCC"/>
	</linearGradient>
	<path class="st2" d="M70,42.1l-6.4-25.4l-6.3,25.4h-6.6l9.5-38.1h7l9.6,38.1H70z M60.5,42.1l3.1-12.8l3.1,12.8H60.5z"/>
	<path class="st0" d="M79.2,41v-8.9l11.2-7.8l-11.2-7.8V7.5L95,19.1c0.7,0.5,1.3,1.2,1.8,2c0.5,0.8,0.7,1.9,0.7,3.2
		c0,1.4-0.2,2.5-0.7,3.3c-0.5,0.8-1,1.4-1.8,1.9L79.2,41z"/>
</g>
</svg>
