<svg id="aad6c0bb-2e10-4aa1-a50f-6f906b2cae0d" data-name="Capa 1" xmlns="http://www.w3.org/2000/svg" width="1420.6" height="355.7" viewBox="0 0 1420.6 355.7">
  <defs>
    <style>
      .ad78e142-5f90-4481-b948-8fc9f87656ce {
        fill: #9fa5bf;
      }
    </style>
  </defs>
  <title>miguel</title>
  <g>
    <path class="ad78e142-5f90-4481-b948-8fc9f87656ce" d="M234.9,379.2V141.3c0-10.9-1.3-18.4-4-22.5s-8.4-6.2-17.2-6.2H198V379.2H124.7V112.6H110.3c-8.8,0-14.7,1.9-17.9,5.7s-4.6,11.4-4.6,23V379.2H14.4V112.6q0-43,19.3-66.1T87.8,23.4H234.9q35.2,0,54.5,23.1t19.3,66.1V379.2Z" transform="translate(-14.4 -23.4)"/>
    <path class="ad78e142-5f90-4481-b948-8fc9f87656ce" d="M332,379.2V290.5h36.9V112.6H332V23.4H479.2v89.2H442.7V290.5h36.5v88.7Z" transform="translate(-14.4 -23.4)"/>
    <path class="ad78e142-5f90-4481-b948-8fc9f87656ce" d="M821.8,379.2q-34.8,0-54.3-23.1c-13-15.4-19.5-37.2-19.5-65.6v-161a33.2,33.2,0,0,0-.8-8.4,10.3,10.3,0,0,0-3.4-5.4c-1.7-1.4-4.2-2.2-7.6-2.6s-8-.5-13.6-.5H602.2a56.7,56.7,0,0,0-12.8,1.3,13.7,13.7,0,0,0-7.8,4.9,23.1,23.1,0,0,0-4,9.5,72.6,72.6,0,0,0-1.3,15.6V273.1a52.3,52.3,0,0,0,.6,8.9,7.9,7.9,0,0,0,3.4,5.2,20.4,20.4,0,0,0,7.9,2.5,99.4,99.4,0,0,0,14,.8h48.3V156.7h73.4V379.2H576.7c-24,0-42.3-7.6-54.7-22.8s-18.6-37.2-18.6-65.9V112.6q0-43,19-66.1c12.8-15.4,30.8-23.1,54.3-23.1H748q35.7,0,54.7,22.8c12.8,15.2,19.1,37.4,19.1,66.4V259.2a93,93,0,0,0,1.1,15.4,21.7,21.7,0,0,0,3.8,9.7,13.5,13.5,0,0,0,7.8,4.9,53.3,53.3,0,0,0,13.2,1.3h22c10.5,0,17.4-2.1,20.6-6.2s4.9-12.4,4.9-25.1V23.4H969V290.5c0,28.4-6.5,50.2-19.3,65.6s-31.1,23.1-54.5,23.1Z" transform="translate(-14.4 -23.4)"/>
    <path class="ad78e142-5f90-4481-b948-8fc9f87656ce" d="M1070.7,379.2c-23.7,0-41.9-7.6-54.4-22.8s-18.9-37.2-18.9-65.9V245.9a61.3,61.3,0,0,1,5.7-26.1q5.7-12.3,15.9-18c-5.7-4.1-10.4-10.1-14.2-17.9s-5.7-16.9-5.7-27.2V112.6q0-43,18.2-66.1t53.4-23.1h147.2v89.2H1089a15.2,15.2,0,0,0-12.7,6.7c-3.4,4.4-5.1,10.8-5.1,19s1.5,12.3,4.4,16.4,7.4,6.1,13.4,6.1h128v81H1089a16,16,0,0,0-12.7,5.9c-3.4,3.9-5.1,10.5-5.1,19.7,0,6.9,1.5,12.4,4.4,16.7s7.4,6.4,13.4,6.4h128.9v88.7Z" transform="translate(-14.4 -23.4)"/>
    <path class="ad78e142-5f90-4481-b948-8fc9f87656ce" d="M1246.7,379.2V23.4h73.4V290.5H1435v88.7Z" transform="translate(-14.4 -23.4)"/>
  </g>
</svg>
