<?xml version="1.0" encoding="utf-8"?>
<!-- Generator: Adobe Illustrator 23.0.5, SVG Export Plug-In . SVG Version: 6.00 Build 0)  -->
<svg version="1.1" id="e4d58e81-5643-4d03-9abd-1fdd5c9e5d92"
	 xmlns="http://www.w3.org/2000/svg" xmlns:xlink="http://www.w3.org/1999/xlink" x="0px" y="0px" viewBox="0 0 1280.6 549"
	 style="enable-background:new 0 0 1280.6 549;" xml:space="preserve">
<style type="text/css">
	.st0{enable-background:new    ;}
	.st1{fill:#9FA5BF;}
</style>
<title>angel</title>
<g class="st0">
	<path class="st1" d="M230.6,434.2l-74.5-237.3L83,434.2H6L116.2,77.9h81.3l111.5,356.3H230.6z M120.4,434.2l36.2-120l36.2,120
		H120.4z"/>
	<path class="st1" d="M479.1,434.2V194.3c0-10.3-1.3-17.3-4-21c-2.7-3.8-7.7-5.6-15.1-5.6h-57v266.6h-73.6V78.4h149.8
		c23.5,0,41.7,7.7,54.5,23.1c12.8,15.4,19.1,37.4,19.1,66.1v266.6H479.1z"/>
	<path class="st1" d="M655.2,434.2c-24.1,0-42.4-7.6-54.9-22.8c-12.5-15.2-18.7-37.2-18.7-65.9V167.6c0-28.7,6.4-50.7,19.1-66.1
		c12.8-15.4,30.9-23.1,54.5-23.1h146.4v89.2H680.7c-5.1,0-9.4,0.4-12.8,1.3c-3.4,0.9-6,2.5-7.9,4.9c-1.8,2.4-3.2,5.6-4,9.5
		c-0.9,3.9-1.3,9.1-1.3,15.6v129.2c0,3.8,0.2,6.8,0.6,9c0.4,2.2,1.6,3.9,3.4,5.1c1.8,1.2,4.5,2.1,7.9,2.6c3.4,0.5,8.1,0.8,14,0.8
		h48.5V211.7h73.6v222.5H655.2z"/>
	<path class="st1" d="M905.4,434.2c-23.8,0-42.1-7.6-54.7-22.8c-12.6-15.2-18.9-37.2-18.9-65.9v-44.6c0-9.2,1.9-17.9,5.7-26.1
		c3.8-8.2,9.1-14.2,16-17.9c-5.7-4.1-10.4-10.1-14.3-17.9c-3.8-7.9-5.7-16.9-5.7-27.2v-44.1c0-28.7,6.1-50.7,18.3-66.1
		c12.2-15.4,30.1-23.1,53.6-23.1H1053v89.2H923.7c-5.1,0-9.4,2.2-12.8,6.7c-3.4,4.4-5.1,10.8-5.1,19c0,6.8,1.5,12.3,4.5,16.4
		c3,4.1,7.4,6.2,13.4,6.2h128.5v81H923.7c-5.1,0-9.4,2-12.8,5.9c-3.4,3.9-5.1,10.5-5.1,19.7c0,6.8,1.5,12.4,4.5,16.7
		c3,4.3,7.4,6.4,13.4,6.4H1053v88.7H905.4z"/>
	<path class="st1" d="M1081.9,434.2V78.4h73.6v267.1h115.3v88.7H1081.9z"/>
</g>
</svg>
