<?xml version="1.0" encoding="utf-8"?>
<!-- Generator: Adobe Illustrator 23.0.5, SVG Export Plug-In . SVG Version: 6.00 Build 0)  -->
<svg version="1.1" id="Layer_1" xmlns="http://www.w3.org/2000/svg" xmlns:xlink="http://www.w3.org/1999/xlink" x="0px" y="0px"
	 viewBox="0 0 99.5 46" style="enable-background:new 0 0 99.5 46;" xml:space="preserve">
<style type="text/css">
	.st0{fill:#9FA5BF;}
	.st1{fill:url(#SVGID_1_);}
	.st2{fill:url(#SVGID_2_);}
</style>
<g>
	<path class="st0" d="M4.5,30.6c-0.7-0.5-1.3-1.2-1.8-1.9C2.3,27.9,2,26.8,2,25.4C2,24,2.3,23,2.7,22.2c0.5-0.8,1-1.5,1.8-2
		L20.3,8.6v8.9L9.1,25.4l11.2,7.8v8.9L4.5,30.6z"/>
	<linearGradient id="SVGID_1_" gradientUnits="userSpaceOnUse" x1="21.3616" y1="40.9724" x2="51.1146" y2="11.2194">
		<stop  offset="0" style="stop-color:#FFFFFF"/>
		<stop  offset="0.1416" style="stop-color:#FBFBFB"/>
		<stop  offset="0.2693" style="stop-color:#F0F0F0"/>
		<stop  offset="0.3917" style="stop-color:#DEDEDE"/>
		<stop  offset="0.5109" style="stop-color:#C4C4C4"/>
		<stop  offset="0.6277" style="stop-color:#A3A3A3"/>
		<stop  offset="0.7427" style="stop-color:#7A7A7A"/>
		<stop  offset="0.8564" style="stop-color:#494949"/>
		<stop  offset="0.9662" style="stop-color:#121212"/>
		<stop  offset="1" style="stop-color:#000000"/>
	</linearGradient>
	<path class="st1" d="M42.6,43.2V17.7c0-1.2-0.1-2-0.3-2.4c-0.2-0.4-0.7-0.7-1.5-0.7h-1.4v28.5h-6.3V14.6h-1.2
		c-0.8,0-1.3,0.2-1.5,0.6c-0.3,0.4-0.4,1.2-0.4,2.5v25.5h-6.3V14.6c0-3.1,0.6-5.4,1.7-7.1c1.1-1.6,2.7-2.5,4.7-2.5h12.7
		c2,0,3.6,0.8,4.7,2.5c1.1,1.6,1.7,4,1.7,7.1v28.5H42.6z"/>
	<linearGradient id="SVGID_2_" gradientUnits="userSpaceOnUse" x1="49.9858" y1="42.5005" x2="77.2876" y2="15.1987">
		<stop  offset="0" style="stop-color:#FFFFFF"/>
		<stop  offset="0.1416" style="stop-color:#FBFBFB"/>
		<stop  offset="0.2693" style="stop-color:#F0F0F0"/>
		<stop  offset="0.3917" style="stop-color:#DEDEDE"/>
		<stop  offset="0.5109" style="stop-color:#C4C4C4"/>
		<stop  offset="0.6277" style="stop-color:#A3A3A3"/>
		<stop  offset="0.7427" style="stop-color:#7A7A7A"/>
		<stop  offset="0.8564" style="stop-color:#494949"/>
		<stop  offset="0.9662" style="stop-color:#121212"/>
		<stop  offset="1" style="stop-color:#000000"/>
	</linearGradient>
	<path class="st2" d="M70,43.2l-6.4-25.4l-6.3,25.4h-6.6L60.1,5h7l9.6,38.1H70z M60.5,43.2l3.1-12.8l3.1,12.8H60.5z"/>
	<path class="st0" d="M79.2,42.1v-8.9l11.2-7.8l-11.2-7.8V8.6L95,20.2c0.7,0.5,1.3,1.2,1.8,2c0.5,0.8,0.7,1.9,0.7,3.2
		c0,1.4-0.2,2.5-0.7,3.3c-0.5,0.8-1,1.4-1.8,1.9L79.2,42.1z"/>
</g>
</svg>
